<svg width="236" height="36" viewBox="0 0 236 36" fill="none" xmlns="http://www.w3.org/2000/svg">
<rect width="236" height="36" rx="10" fill="#90553C"/>
<path d="M70.832 24.766C69.9733 24.766 69.1987 24.598 68.508 24.262C67.8173 23.926 67.2247 23.4547 66.73 22.848C66.2447 22.2413 65.8713 21.5227 65.61 20.692C65.3487 19.8613 65.218 18.9467 65.218 17.948C65.218 17.2853 65.274 16.66 65.386 16.072C65.5073 15.484 65.68 14.938 65.904 14.434C66.1373 13.9207 66.4173 13.468 66.744 13.076C67.0707 12.6747 67.444 12.3293 67.864 12.04C68.284 11.7507 68.746 11.5313 69.25 11.382C69.754 11.2327 70.2907 11.158 70.86 11.158C71.308 11.158 71.7607 11.2093 72.218 11.312C72.6753 11.4147 73.1093 11.5967 73.52 11.858C73.94 12.11 74.3133 12.4647 74.64 12.922C74.7147 13.034 74.7333 13.132 74.696 13.216C74.668 13.3 74.5933 13.3933 74.472 13.496C74.3507 13.608 74.2387 13.6733 74.136 13.692C74.0427 13.7107 73.954 13.6733 73.87 13.58C73.6087 13.3187 73.3193 13.0993 73.002 12.922C72.6847 12.7353 72.344 12.5953 71.98 12.502C71.6253 12.3993 71.252 12.348 70.86 12.348C70.44 12.348 70.0433 12.404 69.67 12.516C69.2967 12.628 68.9467 12.796 68.62 13.02C68.2933 13.2347 68.004 13.5007 67.752 13.818C67.5 14.1353 67.2807 14.504 67.094 14.924C66.9073 15.3347 66.7673 15.7967 66.674 16.31C66.5807 16.814 66.534 17.36 66.534 17.948C66.534 18.8347 66.6367 19.628 66.842 20.328C67.0567 21.028 67.3553 21.6207 67.738 22.106C68.1207 22.582 68.5733 22.946 69.096 23.198C69.628 23.45 70.2067 23.576 70.832 23.576C71.1773 23.576 71.4993 23.5293 71.798 23.436C72.0967 23.3427 72.3813 23.212 72.652 23.044C72.932 22.876 73.1933 22.68 73.436 22.456C73.6787 22.232 73.9213 21.9847 74.164 21.714C74.248 21.63 74.3413 21.5973 74.444 21.616C74.556 21.6347 74.6727 21.6953 74.794 21.798C74.9247 21.9007 75.004 21.994 75.032 22.078C75.06 22.162 75.0367 22.2553 74.962 22.358C74.5513 22.9273 74.122 23.3893 73.674 23.744C73.226 24.0987 72.764 24.3553 72.288 24.514C71.812 24.682 71.3267 24.766 70.832 24.766ZM78.621 24.738C78.3037 24.738 78.0284 24.6913 77.795 24.598C77.5617 24.514 77.3704 24.3833 77.221 24.206C77.0717 24.0193 76.9597 23.7907 76.885 23.52C76.8197 23.24 76.787 22.9133 76.787 22.54V11.522C76.787 11.4007 76.8337 11.312 76.927 11.256C77.0297 11.1907 77.179 11.158 77.375 11.158C77.5804 11.158 77.7344 11.1907 77.837 11.256C77.9397 11.312 77.991 11.4007 77.991 11.522V22.54C77.991 22.96 78.0517 23.2587 78.173 23.436C78.3037 23.604 78.5417 23.688 78.887 23.688C79.0177 23.688 79.1157 23.744 79.181 23.856C79.2464 23.9587 79.2697 24.08 79.251 24.22C79.2417 24.3507 79.1857 24.4673 79.083 24.57C78.9804 24.682 78.8264 24.738 78.621 24.738ZM78.6043 24.738C78.4736 24.738 78.3803 24.682 78.3243 24.57C78.259 24.4673 78.2356 24.3507 78.2543 24.22C78.2636 24.08 78.3196 23.9587 78.4223 23.856C78.525 23.744 78.6743 23.688 78.8703 23.688C79.1783 23.688 79.463 23.6367 79.7243 23.534C79.9856 23.4313 80.2236 23.2867 80.4383 23.1C80.653 22.9133 80.8396 22.694 80.9983 22.442C81.1663 22.19 81.3063 21.9193 81.4183 21.63C81.4743 21.49 81.5536 21.4293 81.6563 21.448C81.7683 21.4573 81.8616 21.5087 81.9363 21.602C82.0203 21.6953 82.0483 21.7933 82.0203 21.896C81.8803 22.344 81.6983 22.7453 81.4743 23.1C81.2596 23.4453 81.0076 23.744 80.7183 23.996C80.4383 24.2387 80.121 24.4207 79.7663 24.542C79.4116 24.6727 79.0243 24.738 78.6043 24.738ZM83.1543 24.738C82.837 24.738 82.5616 24.6913 82.3283 24.598C82.095 24.514 81.9036 24.3833 81.7543 24.206C81.605 24.0193 81.493 23.7907 81.4183 23.52C81.353 23.24 81.3203 22.9133 81.3203 22.54V17.654C81.3203 17.5327 81.367 17.444 81.4603 17.388C81.563 17.3227 81.7123 17.29 81.9083 17.29C82.1136 17.29 82.2676 17.3227 82.3703 17.388C82.473 17.444 82.5243 17.5327 82.5243 17.654V22.54C82.5243 22.96 82.585 23.2587 82.7063 23.436C82.837 23.604 83.075 23.688 83.4203 23.688C83.551 23.688 83.649 23.744 83.7143 23.856C83.7796 23.9587 83.803 24.08 83.7843 24.22C83.775 24.3507 83.719 24.4673 83.6163 24.57C83.5136 24.682 83.3596 24.738 83.1543 24.738ZM81.9363 15.134C81.675 15.134 81.4743 15.064 81.3343 14.924C81.2036 14.7747 81.1383 14.5553 81.1383 14.266C81.1383 13.9673 81.2036 13.7433 81.3343 13.594C81.4743 13.4447 81.675 13.37 81.9363 13.37C82.1883 13.37 82.3796 13.4447 82.5103 13.594C82.641 13.7433 82.7063 13.9673 82.7063 14.266C82.7156 14.5553 82.6503 14.7747 82.5103 14.924C82.3796 15.064 82.1883 15.134 81.9363 15.134ZM83.157 24.738C83.0264 24.738 82.933 24.682 82.877 24.57C82.8117 24.4673 82.7884 24.3507 82.807 24.22C82.8164 24.08 82.8724 23.9587 82.975 23.856C83.0777 23.744 83.227 23.688 83.423 23.688C83.703 23.688 83.955 23.6507 84.179 23.576C84.3937 23.5013 84.5804 23.3893 84.739 23.24C84.8977 23.0907 85.0237 22.904 85.117 22.68C85.2197 22.456 85.2897 22.1947 85.327 21.896C85.3457 21.756 85.4157 21.6673 85.537 21.63C85.6584 21.5833 85.775 21.5833 85.887 21.63C86.0084 21.6673 86.0597 21.756 86.041 21.896C86.0037 22.3907 85.9057 22.82 85.747 23.184C85.5884 23.5387 85.383 23.8327 85.131 24.066C84.879 24.29 84.585 24.458 84.249 24.57C83.9224 24.682 83.5584 24.738 83.157 24.738ZM89.191 24.738C87.987 24.738 87.0304 24.4113 86.321 23.758C85.6117 23.1047 85.257 22.1853 85.257 21C85.257 20.4493 85.3364 19.9453 85.495 19.488C85.663 19.0307 85.8917 18.634 86.181 18.298C86.4704 17.962 86.811 17.7007 87.203 17.514C87.6044 17.3273 88.043 17.234 88.519 17.234C88.9484 17.234 89.387 17.3273 89.835 17.514C90.283 17.7007 90.675 17.9993 91.011 18.41C91.1137 18.5407 91.151 18.6527 91.123 18.746C91.095 18.83 91.0297 18.928 90.927 19.04C90.8057 19.1613 90.6937 19.236 90.591 19.264C90.4884 19.292 90.381 19.2593 90.269 19.166C90.0077 18.9513 89.751 18.7647 89.499 18.606C89.2564 18.438 88.9297 18.354 88.519 18.354C88.211 18.354 87.931 18.4147 87.679 18.536C87.427 18.6573 87.2124 18.8347 87.035 19.068C86.867 19.3013 86.7364 19.5813 86.643 19.908C86.5497 20.2253 86.503 20.5893 86.503 21C86.503 21.56 86.6104 22.0407 86.825 22.442C87.049 22.8433 87.3617 23.1513 87.763 23.366C88.1737 23.5807 88.6497 23.688 89.191 23.688C89.3217 23.688 89.4197 23.744 89.485 23.856C89.5597 23.9587 89.597 24.08 89.597 24.22C89.597 24.3507 89.5644 24.4673 89.499 24.57C89.4337 24.682 89.331 24.738 89.191 24.738ZM89.1652 24.738C89.0812 24.738 89.0206 24.682 88.9832 24.57C88.9366 24.4673 88.9132 24.3507 88.9132 24.22C88.9132 24.08 88.9366 23.9587 88.9832 23.856C89.0299 23.744 89.0952 23.688 89.1792 23.688C89.7486 23.688 90.3039 23.59 90.8452 23.394C91.3772 23.1887 91.8719 22.904 92.3292 22.54C92.7866 22.1667 93.1739 21.7233 93.4912 21.21C93.5379 21.1353 93.6172 21.1213 93.7292 21.168C93.8412 21.2147 93.9346 21.2893 94.0092 21.392C94.0932 21.4853 94.1119 21.5693 94.0652 21.644C93.6919 22.2973 93.2439 22.8573 92.7212 23.324C92.2079 23.7813 91.6526 24.1313 91.0552 24.374C90.4486 24.6167 89.8186 24.738 89.1652 24.738ZM98.2792 24.738C98.0086 24.738 97.7566 24.6867 97.5232 24.584C97.2899 24.4813 97.0426 24.304 96.7812 24.052C96.5199 23.8 96.2212 23.4593 95.8852 23.03C95.5492 22.5913 95.1386 22.0407 94.6532 21.378V24.346C94.6532 24.4673 94.6019 24.556 94.4992 24.612C94.3966 24.6773 94.2472 24.71 94.0512 24.71C93.8459 24.71 93.6919 24.6773 93.5892 24.612C93.4959 24.556 93.4492 24.4673 93.4492 24.346V11.522C93.4492 11.4007 93.4959 11.312 93.5892 11.256C93.6919 11.1907 93.8459 11.158 94.0512 11.158C94.1819 11.158 94.2892 11.172 94.3732 11.2C94.4666 11.228 94.5366 11.27 94.5832 11.326C94.6299 11.3727 94.6532 11.438 94.6532 11.522V18.69C94.9706 18.2793 95.3346 17.9387 95.7452 17.668C96.1559 17.388 96.5852 17.248 97.0332 17.248C97.5839 17.248 97.9852 17.3973 98.2372 17.696C98.4892 17.9853 98.6152 18.3353 98.6152 18.746C98.6152 18.998 98.5732 19.2407 98.4892 19.474C98.4146 19.698 98.2979 19.908 98.1392 20.104C97.9899 20.3 97.8079 20.4773 97.5932 20.636C97.3879 20.7853 97.1499 20.916 96.8792 21.028C96.6179 21.14 96.3379 21.224 96.0392 21.28C96.3472 21.7 96.6179 22.064 96.8512 22.372C97.0939 22.6707 97.3039 22.918 97.4812 23.114C97.6679 23.3007 97.8359 23.4407 97.9852 23.534C98.1346 23.6273 98.2746 23.674 98.4052 23.674C98.5546 23.674 98.6946 23.6367 98.8252 23.562C98.9559 23.4873 99.0959 23.3753 99.2452 23.226C99.3479 23.1233 99.4412 23.0673 99.5252 23.058C99.6092 23.0487 99.7119 23.0813 99.8332 23.156C99.9919 23.24 100.071 23.3427 100.071 23.464C100.081 23.5853 100.048 23.6973 99.9732 23.8C99.6932 24.192 99.3946 24.444 99.0772 24.556C98.7599 24.6773 98.4939 24.738 98.2792 24.738ZM94.6532 20.664C95.0546 20.636 95.4232 20.5753 95.7592 20.482C96.0952 20.3793 96.3846 20.2533 96.6272 20.104C96.8792 19.9453 97.0706 19.768 97.2012 19.572C97.3412 19.376 97.4112 19.1707 97.4112 18.956C97.4112 18.7413 97.3552 18.592 97.2432 18.508C97.1312 18.4147 96.9912 18.368 96.8232 18.368C96.6179 18.368 96.3892 18.4427 96.1372 18.592C95.8946 18.732 95.6472 18.9327 95.3952 19.194C95.1432 19.4553 94.8959 19.7633 94.6532 20.118V20.664ZM104.891 30.898C104.639 30.898 104.396 30.856 104.163 30.772C103.939 30.6973 103.738 30.5853 103.561 30.436C103.383 30.296 103.243 30.128 103.141 29.932C103.075 29.8013 103.071 29.68 103.127 29.568C103.173 29.456 103.271 29.3533 103.421 29.26C103.561 29.176 103.677 29.134 103.771 29.134C103.864 29.1433 103.962 29.204 104.065 29.316C104.214 29.4747 104.363 29.6007 104.513 29.694C104.662 29.7967 104.825 29.848 105.003 29.848C105.245 29.848 105.409 29.7547 105.493 29.568C105.577 29.3907 105.619 29.1667 105.619 28.896V18.62H104.429C104.317 18.62 104.228 18.5733 104.163 18.48C104.097 18.3867 104.065 18.2467 104.065 18.06C104.065 17.6867 104.181 17.5 104.415 17.5H105.619V13.454C105.619 12.894 105.726 12.4413 105.941 12.096C106.155 11.7507 106.426 11.4987 106.753 11.34C107.089 11.1813 107.439 11.102 107.803 11.102C108.26 11.102 108.647 11.186 108.965 11.354C109.282 11.522 109.543 11.7133 109.749 11.928C109.851 12.0307 109.889 12.138 109.861 12.25C109.833 12.3527 109.767 12.46 109.665 12.572C109.543 12.6933 109.431 12.7633 109.329 12.782C109.226 12.8007 109.114 12.7727 108.993 12.698C108.787 12.5487 108.605 12.432 108.447 12.348C108.288 12.264 108.087 12.222 107.845 12.222C107.555 12.222 107.313 12.3107 107.117 12.488C106.921 12.6653 106.823 13.0153 106.823 13.538V17.5H108.629C108.853 17.5 108.965 17.6867 108.965 18.06C108.965 18.4333 108.853 18.62 108.629 18.62H106.823V28.896C106.823 29.4 106.734 29.7967 106.557 30.086C106.389 30.3753 106.155 30.5807 105.857 30.702C105.567 30.8327 105.245 30.898 104.891 30.898ZM113.033 24.766C112.407 24.766 111.847 24.6027 111.353 24.276C110.867 23.9493 110.485 23.506 110.205 22.946C109.925 22.3767 109.785 21.728 109.785 21C109.785 20.4493 109.864 19.9453 110.023 19.488C110.181 19.0307 110.405 18.634 110.695 18.298C110.993 17.962 111.339 17.7007 111.731 17.514C112.123 17.3273 112.557 17.234 113.033 17.234C113.658 17.234 114.213 17.3973 114.699 17.724C115.184 18.0413 115.567 18.4847 115.847 19.054C116.127 19.6233 116.267 20.272 116.267 21C116.267 21.4387 116.215 21.8493 116.113 22.232C116.01 22.6147 115.861 22.96 115.665 23.268C115.478 23.576 115.249 23.842 114.979 24.066C114.717 24.29 114.419 24.4627 114.083 24.584C113.756 24.7053 113.406 24.766 113.033 24.766ZM113.033 23.646C113.341 23.646 113.616 23.5853 113.859 23.464C114.111 23.3427 114.321 23.1653 114.489 22.932C114.666 22.6987 114.801 22.4187 114.895 22.092C114.988 21.7653 115.035 21.4013 115.035 21C115.035 20.4587 114.955 19.992 114.797 19.6C114.638 19.1987 114.409 18.8907 114.111 18.676C113.812 18.4613 113.453 18.354 113.033 18.354C112.725 18.354 112.445 18.4147 112.193 18.536C111.941 18.6573 111.726 18.8347 111.549 19.068C111.381 19.3013 111.25 19.5813 111.157 19.908C111.063 20.2253 111.017 20.5893 111.017 21C111.017 21.5413 111.096 22.0127 111.255 22.414C111.423 22.806 111.656 23.1093 111.955 23.324C112.253 23.5387 112.613 23.646 113.033 23.646ZM115.953 19.194C115.85 19.194 115.724 19.1707 115.575 19.124C115.416 19.0773 115.253 19.012 115.085 18.928C114.917 18.844 114.749 18.7507 114.581 18.648C114.432 18.5547 114.338 18.452 114.301 18.34C114.264 18.2187 114.264 18.1067 114.301 18.004C114.338 17.9013 114.394 17.8267 114.469 17.78C114.544 17.724 114.614 17.7193 114.679 17.766C114.959 17.9153 115.202 18.0273 115.407 18.102C115.612 18.1673 115.79 18.2 115.939 18.2C116.163 18.2 116.354 18.1533 116.513 18.06C116.662 17.9667 116.812 17.864 116.961 17.752C117.101 17.6307 117.255 17.5233 117.423 17.43C117.591 17.3367 117.801 17.29 118.053 17.29C118.165 17.29 118.249 17.346 118.305 17.458C118.361 17.5607 118.389 17.682 118.389 17.822C118.389 17.9527 118.356 18.074 118.291 18.186C118.235 18.2887 118.142 18.34 118.011 18.34C117.824 18.34 117.661 18.382 117.521 18.466C117.381 18.55 117.241 18.6527 117.101 18.774C116.952 18.886 116.788 18.984 116.611 19.068C116.434 19.152 116.214 19.194 115.953 19.194ZM119.383 24.71C119.187 24.71 119.038 24.6773 118.935 24.612C118.842 24.556 118.795 24.4673 118.795 24.346V19.334C118.795 18.942 118.739 18.6807 118.627 18.55C118.515 18.41 118.314 18.34 118.025 18.34C117.885 18.34 117.782 18.2887 117.717 18.186C117.652 18.074 117.619 17.9527 117.619 17.822C117.619 17.682 117.656 17.5607 117.731 17.458C117.806 17.346 117.913 17.29 118.053 17.29C118.314 17.29 118.548 17.318 118.753 17.374C118.968 17.43 119.15 17.5187 119.299 17.64C119.458 17.7613 119.588 17.9107 119.691 18.088C119.794 18.2653 119.868 18.4753 119.915 18.718L119.929 18.788C120.032 18.5453 120.153 18.3307 120.293 18.144C120.433 17.948 120.582 17.7847 120.741 17.654C120.9 17.514 121.063 17.4113 121.231 17.346C121.408 17.2713 121.581 17.234 121.749 17.234C121.88 17.234 121.992 17.2667 122.085 17.332C122.188 17.3973 122.239 17.542 122.239 17.766C122.239 18.0273 122.262 18.2467 122.309 18.424C122.365 18.6013 122.44 18.7367 122.533 18.83C122.636 18.914 122.752 18.956 122.883 18.956C123.116 18.956 123.359 18.8487 123.611 18.634C123.863 18.4193 124.106 18.1813 124.339 17.92C124.423 17.8267 124.516 17.794 124.619 17.822C124.722 17.8407 124.815 17.8967 124.899 17.99C124.992 18.0833 125.053 18.186 125.081 18.298C125.109 18.4007 125.09 18.4893 125.025 18.564C124.717 18.9373 124.376 19.2547 124.003 19.516C123.63 19.7773 123.256 19.908 122.883 19.908C122.5 19.908 122.164 19.782 121.875 19.53C121.595 19.278 121.418 18.9093 121.343 18.424C121.203 18.48 121.068 18.5687 120.937 18.69C120.816 18.8113 120.694 18.9607 120.573 19.138C120.461 19.306 120.354 19.502 120.251 19.726C120.158 19.9407 120.074 20.1693 119.999 20.412V24.346C119.999 24.4673 119.948 24.556 119.845 24.612C119.742 24.6773 119.588 24.71 119.383 24.71ZM131.291 24.71C131.095 24.71 130.946 24.6773 130.843 24.612C130.75 24.556 130.703 24.4673 130.703 24.346V19.334C130.703 18.942 130.642 18.6807 130.521 18.55C130.4 18.41 130.232 18.34 130.017 18.34C129.858 18.34 129.723 18.382 129.611 18.466C129.508 18.55 129.424 18.6713 129.359 18.83C129.303 18.9887 129.266 19.1753 129.247 19.39C129.238 19.5393 129.196 19.6513 129.121 19.726C129.046 19.7913 128.925 19.824 128.757 19.824C128.608 19.824 128.486 19.7913 128.393 19.726C128.3 19.6607 128.258 19.5067 128.267 19.264C128.286 18.8627 128.37 18.5173 128.519 18.228C128.659 17.9293 128.855 17.7007 129.107 17.542C129.368 17.374 129.672 17.29 130.017 17.29C130.278 17.29 130.507 17.3227 130.703 17.388C130.899 17.444 131.072 17.528 131.221 17.64C131.37 17.752 131.492 17.892 131.585 18.06C131.678 18.2187 131.748 18.396 131.795 18.592L131.809 18.648C131.958 18.3773 132.126 18.1533 132.313 17.976C132.5 17.7987 132.691 17.654 132.887 17.542C133.092 17.43 133.298 17.3507 133.503 17.304C133.708 17.2573 133.9 17.234 134.077 17.234C134.553 17.234 134.978 17.3227 135.351 17.5C135.724 17.6773 136.018 17.9573 136.233 18.34C136.457 18.7133 136.569 19.208 136.569 19.824V24.346C136.569 24.4673 136.518 24.556 136.415 24.612C136.312 24.6773 136.158 24.71 135.953 24.71C135.748 24.71 135.594 24.6773 135.491 24.612C135.398 24.556 135.351 24.4673 135.351 24.346V19.936C135.351 19.6 135.304 19.3153 135.211 19.082C135.118 18.8393 134.964 18.6573 134.749 18.536C134.544 18.4147 134.264 18.354 133.909 18.354C133.741 18.354 133.568 18.382 133.391 18.438C133.214 18.4847 133.032 18.5687 132.845 18.69C132.668 18.8113 132.5 18.97 132.341 19.166C132.182 19.362 132.038 19.6047 131.907 19.894V24.346C131.907 24.4673 131.856 24.556 131.753 24.612C131.65 24.6773 131.496 24.71 131.291 24.71ZM141.833 24.738C141.516 24.738 141.24 24.6913 141.007 24.598C140.774 24.514 140.582 24.3833 140.433 24.206C140.284 24.0193 140.172 23.7907 140.097 23.52C140.032 23.24 139.999 22.9133 139.999 22.54V19.936C139.999 19.6093 139.952 19.3293 139.859 19.096C139.766 18.8533 139.612 18.6713 139.397 18.55C139.192 18.4193 138.916 18.354 138.571 18.354C138.328 18.354 138.081 18.396 137.829 18.48C137.586 18.564 137.353 18.704 137.129 18.9C136.905 19.0867 136.704 19.3433 136.527 19.67C136.359 19.9967 136.224 20.398 136.121 20.874H135.757C135.757 20.342 135.827 19.8567 135.967 19.418C136.116 18.97 136.322 18.5827 136.583 18.256C136.854 17.9293 137.171 17.6773 137.535 17.5C137.899 17.3227 138.3 17.234 138.739 17.234C139.215 17.234 139.635 17.3227 139.999 17.5C140.372 17.6773 140.666 17.9573 140.881 18.34C141.096 18.7133 141.203 19.208 141.203 19.824V22.54C141.203 22.96 141.264 23.2587 141.385 23.436C141.516 23.604 141.754 23.688 142.099 23.688C142.23 23.688 142.323 23.744 142.379 23.856C142.444 23.9587 142.468 24.08 142.449 24.22C142.44 24.3507 142.384 24.4673 142.281 24.57C142.178 24.682 142.029 24.738 141.833 24.738ZM141.837 24.738C141.706 24.738 141.613 24.682 141.557 24.57C141.491 24.4673 141.468 24.3507 141.487 24.22C141.496 24.08 141.552 23.9587 141.655 23.856C141.757 23.744 141.907 23.688 142.103 23.688C142.383 23.688 142.635 23.6507 142.859 23.576C143.073 23.5013 143.26 23.3893 143.419 23.24C143.577 23.0907 143.703 22.904 143.797 22.68C143.899 22.456 143.969 22.1947 144.007 21.896C144.025 21.756 144.095 21.6673 144.217 21.63C144.338 21.5833 144.455 21.5833 144.567 21.63C144.688 21.6673 144.739 21.756 144.721 21.896C144.683 22.3907 144.585 22.82 144.427 23.184C144.268 23.5387 144.063 23.8327 143.811 24.066C143.559 24.29 143.265 24.458 142.929 24.57C142.602 24.682 142.238 24.738 141.837 24.738ZM146.667 24.738C146.135 24.738 145.663 24.612 145.253 24.36C144.842 24.0987 144.52 23.7067 144.287 23.184C144.053 22.6613 143.937 22.0033 143.937 21.21C143.937 20.7247 143.983 20.2767 144.077 19.866C144.17 19.4553 144.301 19.0867 144.469 18.76C144.646 18.4333 144.861 18.158 145.113 17.934C145.374 17.71 145.668 17.5373 145.995 17.416C146.321 17.2947 146.681 17.234 147.073 17.234C147.455 17.234 147.847 17.3087 148.249 17.458C148.65 17.6073 149.009 17.8033 149.327 18.046V19.096C148.953 18.7973 148.594 18.5967 148.249 18.494C147.913 18.3913 147.563 18.34 147.199 18.34C146.956 18.34 146.727 18.3773 146.513 18.452C146.307 18.5267 146.121 18.6387 145.953 18.788C145.794 18.9373 145.654 19.124 145.533 19.348C145.421 19.572 145.332 19.8333 145.267 20.132C145.211 20.4307 145.183 20.7713 145.183 21.154C145.183 21.6673 145.243 22.1107 145.365 22.484C145.486 22.848 145.668 23.128 145.911 23.324C146.163 23.52 146.475 23.618 146.849 23.618C147.185 23.618 147.497 23.5433 147.787 23.394C148.085 23.2353 148.356 22.988 148.599 22.652C148.851 22.3067 149.065 21.854 149.243 21.294L149.467 22.148C149.252 22.8667 148.986 23.4127 148.669 23.786C148.361 24.1593 148.029 24.4113 147.675 24.542C147.329 24.6727 146.993 24.738 146.667 24.738ZM150.727 24.738C150.409 24.738 150.134 24.6913 149.901 24.598C149.667 24.514 149.476 24.3833 149.327 24.206C149.177 24.0193 149.065 23.7907 148.991 23.52C148.925 23.24 148.893 22.9133 148.893 22.54V17.696C148.893 17.556 148.944 17.4533 149.047 17.388C149.149 17.3227 149.303 17.29 149.509 17.29C149.705 17.29 149.849 17.3227 149.943 17.388C150.045 17.444 150.097 17.5373 150.097 17.668V22.54C150.097 22.96 150.157 23.2587 150.279 23.436C150.409 23.604 150.647 23.688 150.993 23.688C151.077 23.688 151.137 23.744 151.175 23.856C151.221 23.9587 151.235 24.08 151.217 24.22C151.207 24.3507 151.161 24.4673 151.077 24.57C151.002 24.682 150.885 24.738 150.727 24.738ZM150.723 24.738C150.593 24.738 150.499 24.682 150.443 24.57C150.378 24.4673 150.355 24.3507 150.373 24.22C150.383 24.08 150.439 23.9587 150.541 23.856C150.644 23.744 150.793 23.688 150.989 23.688C151.269 23.688 151.521 23.6507 151.745 23.576C151.96 23.5013 152.147 23.3893 152.305 23.24C152.464 23.0907 152.59 22.904 152.683 22.68C152.786 22.456 152.856 22.1947 152.893 21.896C152.912 21.756 152.982 21.6673 153.103 21.63C153.225 21.5833 153.341 21.5833 153.453 21.63C153.575 21.6673 153.626 21.756 153.607 21.896C153.57 22.3907 153.472 22.82 153.313 23.184C153.155 23.5387 152.949 23.8327 152.697 24.066C152.445 24.29 152.151 24.458 151.815 24.57C151.489 24.682 151.125 24.738 150.723 24.738ZM155.945 30.898C155.32 30.898 154.783 30.7767 154.335 30.534C153.887 30.2913 153.542 30.002 153.299 29.666C153.215 29.5353 153.178 29.4047 153.187 29.274C153.206 29.1433 153.309 29.008 153.495 28.868C153.673 28.7373 153.808 28.6813 153.901 28.7C154.004 28.7187 154.116 28.7887 154.237 28.91C154.527 29.218 154.807 29.442 155.077 29.582C155.348 29.7313 155.656 29.806 156.001 29.806C156.375 29.806 156.697 29.7267 156.967 29.568C157.238 29.4187 157.443 29.1713 157.583 28.826C157.733 28.4807 157.807 28.0187 157.807 27.44V23.45C157.593 23.7953 157.355 24.0613 157.093 24.248C156.841 24.4347 156.585 24.5607 156.323 24.626C156.071 24.7007 155.819 24.738 155.567 24.738C155.035 24.738 154.564 24.612 154.153 24.36C153.743 24.0987 153.421 23.7067 153.187 23.184C152.954 22.6613 152.837 22.0033 152.837 21.21C152.837 20.7247 152.879 20.2767 152.963 19.866C153.057 19.4553 153.192 19.0867 153.369 18.76C153.547 18.4333 153.761 18.158 154.013 17.934C154.265 17.71 154.555 17.5373 154.881 17.416C155.208 17.2947 155.567 17.234 155.959 17.234C156.258 17.234 156.566 17.276 156.883 17.36C157.21 17.444 157.518 17.5653 157.807 17.724V17.654C157.807 17.5327 157.854 17.444 157.947 17.388C158.041 17.3227 158.19 17.29 158.395 17.29C158.601 17.29 158.755 17.3227 158.857 17.388C158.96 17.444 159.011 17.5327 159.011 17.654V27.482C159.011 28.2473 158.885 28.882 158.633 29.386C158.381 29.8993 158.027 30.2773 157.569 30.52C157.112 30.772 156.571 30.898 155.945 30.898ZM155.735 23.618C156.006 23.618 156.263 23.5713 156.505 23.478C156.757 23.3753 156.991 23.2167 157.205 23.002C157.429 22.7873 157.63 22.5073 157.807 22.162V18.858C157.518 18.6713 157.233 18.5407 156.953 18.466C156.673 18.382 156.384 18.34 156.085 18.34C155.843 18.34 155.619 18.3773 155.413 18.452C155.208 18.5267 155.021 18.6387 154.853 18.788C154.685 18.9373 154.541 19.124 154.419 19.348C154.307 19.572 154.219 19.8333 154.153 20.132C154.097 20.4307 154.069 20.7713 154.069 21.154C154.069 21.6673 154.13 22.1107 154.251 22.484C154.373 22.848 154.555 23.128 154.797 23.324C155.049 23.52 155.362 23.618 155.735 23.618ZM163.436 24.738C163.118 24.738 162.843 24.6913 162.61 24.598C162.376 24.514 162.185 24.3833 162.036 24.206C161.886 24.0193 161.774 23.7907 161.7 23.52C161.634 23.24 161.602 22.9133 161.602 22.54V17.654C161.602 17.5327 161.648 17.444 161.742 17.388C161.844 17.3227 161.994 17.29 162.19 17.29C162.395 17.29 162.549 17.3227 162.652 17.388C162.754 17.444 162.806 17.5327 162.806 17.654V22.54C162.806 22.96 162.866 23.2587 162.988 23.436C163.118 23.604 163.356 23.688 163.702 23.688C163.832 23.688 163.93 23.744 163.996 23.856C164.061 23.9587 164.084 24.08 164.066 24.22C164.056 24.3507 164 24.4673 163.898 24.57C163.795 24.682 163.641 24.738 163.436 24.738ZM162.218 15.134C161.956 15.134 161.756 15.064 161.616 14.924C161.485 14.7747 161.42 14.5553 161.42 14.266C161.42 13.9673 161.485 13.7433 161.616 13.594C161.756 13.4447 161.956 13.37 162.218 13.37C162.47 13.37 162.661 13.4447 162.792 13.594C162.922 13.7433 162.988 13.9673 162.988 14.266C162.997 14.5553 162.932 14.7747 162.792 14.924C162.661 15.064 162.47 15.134 162.218 15.134ZM163.438 24.738C163.308 24.738 163.214 24.682 163.158 24.57C163.093 24.4673 163.07 24.3507 163.088 24.22C163.098 24.08 163.154 23.9587 163.256 23.856C163.359 23.744 163.508 23.688 163.704 23.688C163.984 23.688 164.236 23.6507 164.46 23.576C164.675 23.5013 164.862 23.3893 165.02 23.24C165.179 23.0907 165.305 22.904 165.398 22.68C165.501 22.456 165.571 22.1947 165.608 21.896C165.627 21.756 165.697 21.6673 165.818 21.63C165.94 21.5833 166.056 21.5833 166.168 21.63C166.29 21.6673 166.341 21.756 166.322 21.896C166.285 22.3907 166.187 22.82 166.028 23.184C165.87 23.5387 165.664 23.8327 165.412 24.066C165.16 24.29 164.866 24.458 164.53 24.57C164.204 24.682 163.84 24.738 163.438 24.738ZM168.772 24.766C168.147 24.766 167.587 24.626 167.092 24.346C166.607 24.066 166.224 23.6507 165.944 23.1C165.664 22.5493 165.524 21.8727 165.524 21.07C165.524 20.51 165.604 19.9967 165.762 19.53C165.93 19.054 166.159 18.648 166.448 18.312C166.747 17.9667 167.097 17.7007 167.498 17.514C167.9 17.3273 168.343 17.234 168.828 17.234C169.239 17.234 169.659 17.3227 170.088 17.5C170.527 17.668 170.919 17.9573 171.264 18.368C171.367 18.4987 171.404 18.6153 171.376 18.718C171.358 18.8207 171.297 18.928 171.194 19.04C171.073 19.1613 170.956 19.236 170.844 19.264C170.742 19.292 170.634 19.2593 170.522 19.166C170.27 18.9513 170.018 18.7647 169.766 18.606C169.514 18.438 169.183 18.354 168.772 18.354C168.464 18.354 168.184 18.4147 167.932 18.536C167.68 18.6573 167.466 18.8347 167.288 19.068C167.12 19.3013 166.99 19.5813 166.896 19.908C166.803 20.2253 166.756 20.5893 166.756 21C166.756 21.5413 166.836 22.0127 166.994 22.414C167.162 22.806 167.396 23.1093 167.694 23.324C167.993 23.5387 168.352 23.646 168.772 23.646C169.071 23.646 169.323 23.604 169.528 23.52C169.743 23.436 169.939 23.3193 170.116 23.17C170.294 23.0113 170.48 22.8247 170.676 22.61C170.779 22.5073 170.886 22.4607 170.998 22.47C171.11 22.4793 171.232 22.5353 171.362 22.638C171.493 22.7407 171.577 22.8433 171.614 22.946C171.652 23.0393 171.628 23.1467 171.544 23.268C171.292 23.632 171.008 23.926 170.69 24.15C170.382 24.3647 170.06 24.5187 169.724 24.612C169.398 24.7147 169.08 24.766 168.772 24.766Z" fill="#FFFEF2"/>
</svg>
